<mxfile host="65bd71144e">
    <diagram id="WimCaZcpNjJ5USMCXraz" name="第 1 页">
        <mxGraphModel dx="472" dy="330" grid="1" gridSize="10" guides="1" tooltips="1" connect="1" arrows="1" fold="1" page="1" pageScale="1" pageWidth="827" pageHeight="1169" math="0" shadow="0">
            <root>
                <mxCell id="0"/>
                <mxCell id="1" parent="0"/>
                <mxCell id="20" value="" style="rounded=1;whiteSpace=wrap;html=1;fontSize=16;fillColor=none;dashed=1;dashPattern=8 8;strokeColor=#99CCFF;" parent="1" vertex="1">
                    <mxGeometry x="100" y="420" width="360" height="100" as="geometry"/>
                </mxCell>
                <mxCell id="4" value="WN" style="ellipse;whiteSpace=wrap;html=1;aspect=fixed;fontSize=16;fillColor=#1ba1e2;fontColor=#ffffff;strokeColor=none;" parent="1" vertex="1">
                    <mxGeometry x="360" y="260" width="80" height="80" as="geometry"/>
                </mxCell>
                <mxCell id="17" style="edgeStyle=none;html=1;exitX=1;exitY=0.5;exitDx=0;exitDy=0;entryX=0;entryY=0.5;entryDx=0;entryDy=0;fontSize=16;startArrow=oval;startFill=1;strokeColor=#3399FF;" parent="1" source="4" target="6" edge="1">
                    <mxGeometry relative="1" as="geometry"/>
                </mxCell>
                <mxCell id="73" value="1" style="edgeLabel;html=1;align=center;verticalAlign=middle;resizable=0;points=[];fontSize=20;" parent="17" vertex="1" connectable="0">
                    <mxGeometry x="0.2226" y="-4" relative="1" as="geometry">
                        <mxPoint x="-34" y="7" as="offset"/>
                    </mxGeometry>
                </mxCell>
                <mxCell id="5" value="LP" style="ellipse;whiteSpace=wrap;html=1;aspect=fixed;fontSize=16;fillColor=#1ba1e2;fontColor=#ffffff;strokeColor=none;" parent="1" vertex="1">
                    <mxGeometry x="360" y="430" width="80" height="80" as="geometry"/>
                </mxCell>
                <mxCell id="6" value="TokenBridge" style="rounded=1;whiteSpace=wrap;html=1;fontSize=16;strokeColor=none;fillColor=#6d8764;fontColor=#ffffff;" parent="1" vertex="1">
                    <mxGeometry x="740" y="170" width="120" height="60" as="geometry"/>
                </mxCell>
                <mxCell id="7" value="Messager" style="rounded=1;whiteSpace=wrap;html=1;fontSize=16;strokeColor=none;fillColor=#6d8764;fontColor=#ffffff;" parent="1" vertex="1">
                    <mxGeometry x="740" y="340" width="120" height="60" as="geometry"/>
                </mxCell>
                <mxCell id="28" style="edgeStyle=none;html=1;exitX=0.5;exitY=1;exitDx=0;exitDy=0;entryX=0.5;entryY=0;entryDx=0;entryDy=0;strokeColor=#3399FF;fontSize=20;startArrow=oval;startFill=1;" parent="1" source="8" target="10" edge="1">
                    <mxGeometry relative="1" as="geometry"/>
                </mxCell>
                <mxCell id="78" value="6" style="edgeLabel;html=1;align=center;verticalAlign=middle;resizable=0;points=[];fontSize=20;" parent="28" vertex="1" connectable="0">
                    <mxGeometry x="-0.1337" y="-2" relative="1" as="geometry">
                        <mxPoint x="3" as="offset"/>
                    </mxGeometry>
                </mxCell>
                <mxCell id="8" value="CTC" style="rounded=1;whiteSpace=wrap;html=1;fontSize=16;strokeColor=none;fillColor=#6d8764;fontColor=#ffffff;" parent="1" vertex="1">
                    <mxGeometry x="660" y="720" width="120" height="60" as="geometry"/>
                </mxCell>
                <mxCell id="9" value="SCC" style="rounded=1;whiteSpace=wrap;html=1;fontSize=16;strokeColor=none;fillColor=#6d8764;fontColor=#ffffff;" parent="1" vertex="1">
                    <mxGeometry x="820" y="720" width="120" height="60" as="geometry"/>
                </mxCell>
                <mxCell id="10" value="Messager" style="rounded=1;whiteSpace=wrap;html=1;fontSize=16;strokeColor=none;fillColor=#6d8764;fontColor=#ffffff;" parent="1" vertex="1">
                    <mxGeometry x="740" y="875" width="120" height="60" as="geometry"/>
                </mxCell>
                <mxCell id="11" value="TokenBridge" style="rounded=1;whiteSpace=wrap;html=1;fontSize=16;strokeColor=none;fillColor=#6d8764;fontColor=#ffffff;" parent="1" vertex="1">
                    <mxGeometry x="740" y="1025" width="120" height="60" as="geometry"/>
                </mxCell>
                <mxCell id="26" style="edgeStyle=none;html=1;exitX=0.5;exitY=1;exitDx=0;exitDy=0;entryX=0.5;entryY=0;entryDx=0;entryDy=0;strokeColor=#3399FF;fontSize=20;startArrow=oval;startFill=1;" parent="1" source="12" target="8" edge="1">
                    <mxGeometry relative="1" as="geometry"/>
                </mxCell>
                <mxCell id="77" value="5" style="edgeLabel;html=1;align=center;verticalAlign=middle;resizable=0;points=[];fontSize=20;" parent="26" vertex="1" connectable="0">
                    <mxGeometry x="-0.1864" relative="1" as="geometry">
                        <mxPoint x="9" y="-17" as="offset"/>
                    </mxGeometry>
                </mxCell>
                <mxCell id="27" style="edgeStyle=none;html=1;exitX=0.5;exitY=1;exitDx=0;exitDy=0;entryX=0.5;entryY=0;entryDx=0;entryDy=0;strokeColor=#3399FF;fontSize=20;startArrow=oval;startFill=1;" parent="1" source="12" target="9" edge="1">
                    <mxGeometry relative="1" as="geometry"/>
                </mxCell>
                <mxCell id="80" value="5" style="edgeLabel;html=1;align=center;verticalAlign=middle;resizable=0;points=[];fontSize=20;" parent="27" vertex="1" connectable="0">
                    <mxGeometry x="-0.4666" relative="1" as="geometry">
                        <mxPoint x="3" y="3" as="offset"/>
                    </mxGeometry>
                </mxCell>
                <mxCell id="12" value="Sequencer" style="ellipse;whiteSpace=wrap;html=1;aspect=fixed;fontSize=16;fillColor=#1ba1e2;fontColor=#ffffff;strokeColor=none;" parent="1" vertex="1">
                    <mxGeometry x="755" y="490" width="90" height="90" as="geometry"/>
                </mxCell>
                <mxCell id="16" value="WN" style="ellipse;whiteSpace=wrap;html=1;aspect=fixed;fontSize=16;fillColor=#1ba1e2;fontColor=#ffffff;strokeColor=none;" parent="1" vertex="1">
                    <mxGeometry x="360" y="1015" width="80" height="80" as="geometry"/>
                </mxCell>
                <mxCell id="2" value="节点" style="ellipse;whiteSpace=wrap;html=1;aspect=fixed;fontSize=16;fillColor=#1ba1e2;fontColor=#ffffff;strokeColor=none;" parent="1" vertex="1">
                    <mxGeometry x="40" y="40" width="80" height="80" as="geometry"/>
                </mxCell>
                <mxCell id="3" value="合约" style="rounded=1;whiteSpace=wrap;html=1;fontSize=16;strokeColor=none;fillColor=#6d8764;fontColor=#ffffff;" parent="1" vertex="1">
                    <mxGeometry x="176" y="50" width="120" height="60" as="geometry"/>
                </mxCell>
                <mxCell id="18" style="edgeStyle=none;html=1;exitX=0.5;exitY=1;exitDx=0;exitDy=0;entryX=0.5;entryY=0;entryDx=0;entryDy=0;strokeColor=#3399FF;fontSize=16;startArrow=oval;startFill=1;" parent="1" source="6" target="7" edge="1">
                    <mxGeometry relative="1" as="geometry"/>
                </mxCell>
                <mxCell id="74" value="2" style="edgeLabel;html=1;align=center;verticalAlign=middle;resizable=0;points=[];fontSize=20;" parent="18" vertex="1" connectable="0">
                    <mxGeometry x="0.1338" relative="1" as="geometry">
                        <mxPoint y="-13" as="offset"/>
                    </mxGeometry>
                </mxCell>
                <mxCell id="19" style="edgeStyle=none;html=1;exitX=0.5;exitY=1;exitDx=0;exitDy=0;entryX=0.5;entryY=0;entryDx=0;entryDy=0;strokeColor=#3399FF;fontSize=16;startArrow=oval;startFill=1;" parent="1" source="7" target="12" edge="1">
                    <mxGeometry relative="1" as="geometry"/>
                </mxCell>
                <mxCell id="75" value="3" style="edgeLabel;html=1;align=center;verticalAlign=middle;resizable=0;points=[];fontSize=20;" parent="19" vertex="1" connectable="0">
                    <mxGeometry x="-0.2944" y="-2" relative="1" as="geometry">
                        <mxPoint x="2" y="8" as="offset"/>
                    </mxGeometry>
                </mxCell>
                <mxCell id="22" value="LP" style="ellipse;whiteSpace=wrap;html=1;aspect=fixed;fontSize=16;fillColor=#1ba1e2;fontColor=#ffffff;strokeColor=none;opacity=50;" parent="1" vertex="1">
                    <mxGeometry x="260" y="430" width="80" height="80" as="geometry"/>
                </mxCell>
                <mxCell id="23" value="LP" style="ellipse;whiteSpace=wrap;html=1;aspect=fixed;fontSize=16;fillColor=#1ba1e2;fontColor=#ffffff;strokeColor=none;opacity=50;" parent="1" vertex="1">
                    <mxGeometry x="160" y="430" width="80" height="80" as="geometry"/>
                </mxCell>
                <mxCell id="24" value="····" style="text;html=1;align=center;verticalAlign=middle;resizable=0;points=[];autosize=1;strokeColor=none;fillColor=none;fontSize=20;" parent="1" vertex="1">
                    <mxGeometry x="105" y="455" width="50" height="40" as="geometry"/>
                </mxCell>
                <mxCell id="30" value="" style="rounded=1;whiteSpace=wrap;html=1;fontSize=16;fillColor=none;dashed=1;dashPattern=8 8;strokeColor=#99CCFF;" parent="1" vertex="1">
                    <mxGeometry x="100" y="780" width="360" height="100" as="geometry"/>
                </mxCell>
                <mxCell id="31" value="LP" style="ellipse;whiteSpace=wrap;html=1;aspect=fixed;fontSize=16;fillColor=#1ba1e2;fontColor=#ffffff;strokeColor=none;" parent="1" vertex="1">
                    <mxGeometry x="360" y="790" width="80" height="80" as="geometry"/>
                </mxCell>
                <mxCell id="32" value="LP" style="ellipse;whiteSpace=wrap;html=1;aspect=fixed;fontSize=16;fillColor=#1ba1e2;fontColor=#ffffff;strokeColor=none;opacity=50;" parent="1" vertex="1">
                    <mxGeometry x="260" y="790" width="80" height="80" as="geometry"/>
                </mxCell>
                <mxCell id="33" value="LP" style="ellipse;whiteSpace=wrap;html=1;aspect=fixed;fontSize=16;fillColor=#1ba1e2;fontColor=#ffffff;strokeColor=none;opacity=50;" parent="1" vertex="1">
                    <mxGeometry x="160" y="790" width="80" height="80" as="geometry"/>
                </mxCell>
                <mxCell id="34" value="····" style="text;html=1;align=center;verticalAlign=middle;resizable=0;points=[];autosize=1;strokeColor=none;fillColor=none;fontSize=20;" parent="1" vertex="1">
                    <mxGeometry x="105" y="815" width="50" height="40" as="geometry"/>
                </mxCell>
                <mxCell id="35" value="" style="group" parent="1" vertex="1" connectable="0">
                    <mxGeometry x="40" y="650" width="1040" height="10" as="geometry"/>
                </mxCell>
                <mxCell id="13" value="" style="endArrow=none;dashed=1;html=1;dashPattern=1 1;strokeWidth=2;fontSize=16;" parent="35" edge="1">
                    <mxGeometry width="50" height="50" relative="1" as="geometry">
                        <mxPoint as="sourcePoint"/>
                        <mxPoint x="1040" as="targetPoint"/>
                    </mxGeometry>
                </mxCell>
                <mxCell id="14" value="" style="endArrow=none;dashed=1;html=1;dashPattern=1 1;strokeWidth=2;fontSize=16;" parent="35" edge="1">
                    <mxGeometry width="50" height="50" relative="1" as="geometry">
                        <mxPoint y="10" as="sourcePoint"/>
                        <mxPoint x="1040" y="10" as="targetPoint"/>
                    </mxGeometry>
                </mxCell>
                <mxCell id="25" style="edgeStyle=none;html=1;exitX=0;exitY=0.5;exitDx=0;exitDy=0;entryX=1;entryY=0.5;entryDx=0;entryDy=0;strokeColor=#3399FF;fontSize=20;startArrow=oval;startFill=1;" parent="1" source="7" target="20" edge="1">
                    <mxGeometry relative="1" as="geometry"/>
                </mxCell>
                <mxCell id="76" value="4" style="edgeLabel;html=1;align=center;verticalAlign=middle;resizable=0;points=[];fontSize=20;" parent="25" vertex="1" connectable="0">
                    <mxGeometry x="-0.1019" y="2" relative="1" as="geometry">
                        <mxPoint as="offset"/>
                    </mxGeometry>
                </mxCell>
                <mxCell id="47" value="CTC" style="rounded=1;whiteSpace=wrap;html=1;fontSize=16;strokeColor=none;fillColor=#6d8764;fontColor=#ffffff;" parent="1" vertex="1">
                    <mxGeometry x="1790" y="730" width="120" height="60" as="geometry"/>
                </mxCell>
                <mxCell id="107" style="edgeStyle=none;html=1;exitX=0;exitY=1;exitDx=0;exitDy=0;entryX=1;entryY=0.5;entryDx=0;entryDy=0;strokeColor=#3399FF;fontSize=20;startArrow=classic;startFill=1;endArrow=classic;endFill=1;" parent="1" source="48" target="64" edge="1">
                    <mxGeometry relative="1" as="geometry"/>
                </mxCell>
                <mxCell id="108" value="1" style="edgeLabel;html=1;align=center;verticalAlign=middle;resizable=0;points=[];fontSize=20;" parent="107" vertex="1" connectable="0">
                    <mxGeometry x="-0.0825" y="1" relative="1" as="geometry">
                        <mxPoint as="offset"/>
                    </mxGeometry>
                </mxCell>
                <mxCell id="48" value="SCC" style="rounded=1;whiteSpace=wrap;html=1;fontSize=16;strokeColor=none;fillColor=#6d8764;fontColor=#ffffff;" parent="1" vertex="1">
                    <mxGeometry x="1950" y="730" width="120" height="60" as="geometry"/>
                </mxCell>
                <mxCell id="49" style="edgeStyle=none;html=1;exitX=0.5;exitY=1;exitDx=0;exitDy=0;entryX=0.5;entryY=0;entryDx=0;entryDy=0;strokeColor=#3399FF;fontSize=20;startArrow=oval;startFill=1;" parent="1" source="50" target="52" edge="1">
                    <mxGeometry relative="1" as="geometry"/>
                </mxCell>
                <mxCell id="85" value="3" style="edgeLabel;html=1;align=center;verticalAlign=middle;resizable=0;points=[];fontSize=20;" parent="49" vertex="1" connectable="0">
                    <mxGeometry x="-0.071" relative="1" as="geometry">
                        <mxPoint as="offset"/>
                    </mxGeometry>
                </mxCell>
                <mxCell id="50" value="Messager" style="rounded=1;whiteSpace=wrap;html=1;fontSize=16;strokeColor=none;fillColor=#6d8764;fontColor=#ffffff;" parent="1" vertex="1">
                    <mxGeometry x="1870" y="885" width="120" height="60" as="geometry"/>
                </mxCell>
                <mxCell id="51" style="edgeStyle=none;html=1;exitX=0;exitY=0.5;exitDx=0;exitDy=0;entryX=1;entryY=0.5;entryDx=0;entryDy=0;strokeColor=#3399FF;fontSize=20;startArrow=oval;startFill=1;" parent="1" source="52" target="56" edge="1">
                    <mxGeometry relative="1" as="geometry"/>
                </mxCell>
                <mxCell id="83" value="4" style="edgeLabel;html=1;align=center;verticalAlign=middle;resizable=0;points=[];fontSize=20;" parent="51" vertex="1" connectable="0">
                    <mxGeometry x="0.1721" relative="1" as="geometry">
                        <mxPoint x="16" as="offset"/>
                    </mxGeometry>
                </mxCell>
                <mxCell id="52" value="TokenBridge" style="rounded=1;whiteSpace=wrap;html=1;fontSize=16;strokeColor=none;fillColor=#6d8764;fontColor=#ffffff;" parent="1" vertex="1">
                    <mxGeometry x="1870" y="1035" width="120" height="60" as="geometry"/>
                </mxCell>
                <mxCell id="56" value="WN" style="ellipse;whiteSpace=wrap;html=1;aspect=fixed;fontSize=16;fillColor=#1ba1e2;fontColor=#ffffff;strokeColor=none;" parent="1" vertex="1">
                    <mxGeometry x="1490" y="1000" width="80" height="80" as="geometry"/>
                </mxCell>
                <mxCell id="62" style="edgeStyle=none;html=1;exitX=1;exitY=0.5;exitDx=0;exitDy=0;entryX=0;entryY=0.5;entryDx=0;entryDy=0;strokeColor=#3399FF;fontSize=20;startArrow=classic;startFill=1;" parent="1" source="64" target="47" edge="1">
                    <mxGeometry relative="1" as="geometry"/>
                </mxCell>
                <mxCell id="81" value="1" style="edgeLabel;html=1;align=center;verticalAlign=middle;resizable=0;points=[];fontSize=20;" parent="62" vertex="1" connectable="0">
                    <mxGeometry x="0.1148" y="-1" relative="1" as="geometry">
                        <mxPoint as="offset"/>
                    </mxGeometry>
                </mxCell>
                <mxCell id="63" style="edgeStyle=none;html=1;exitX=1;exitY=1;exitDx=0;exitDy=0;entryX=0;entryY=0.5;entryDx=0;entryDy=0;strokeColor=#3399FF;fontSize=20;startArrow=oval;startFill=1;" parent="1" source="64" target="50" edge="1">
                    <mxGeometry relative="1" as="geometry"/>
                </mxCell>
                <mxCell id="82" value="2" style="edgeLabel;html=1;align=center;verticalAlign=middle;resizable=0;points=[];fontSize=20;" parent="63" vertex="1" connectable="0">
                    <mxGeometry x="-0.1058" y="-2" relative="1" as="geometry">
                        <mxPoint as="offset"/>
                    </mxGeometry>
                </mxCell>
                <mxCell id="64" value="" style="rounded=1;whiteSpace=wrap;html=1;fontSize=16;fillColor=none;dashed=1;dashPattern=8 8;strokeColor=#99CCFF;" parent="1" vertex="1">
                    <mxGeometry x="1230" y="790" width="360" height="100" as="geometry"/>
                </mxCell>
                <mxCell id="65" value="LP" style="ellipse;whiteSpace=wrap;html=1;aspect=fixed;fontSize=16;fillColor=#1ba1e2;fontColor=#ffffff;strokeColor=none;" parent="1" vertex="1">
                    <mxGeometry x="1490" y="800" width="80" height="80" as="geometry"/>
                </mxCell>
                <mxCell id="66" value="LP" style="ellipse;whiteSpace=wrap;html=1;aspect=fixed;fontSize=16;fillColor=#1ba1e2;fontColor=#ffffff;strokeColor=none;opacity=50;" parent="1" vertex="1">
                    <mxGeometry x="1390" y="800" width="80" height="80" as="geometry"/>
                </mxCell>
                <mxCell id="67" value="LP" style="ellipse;whiteSpace=wrap;html=1;aspect=fixed;fontSize=16;fillColor=#1ba1e2;fontColor=#ffffff;strokeColor=none;opacity=50;" parent="1" vertex="1">
                    <mxGeometry x="1290" y="800" width="80" height="80" as="geometry"/>
                </mxCell>
                <mxCell id="68" value="····" style="text;html=1;align=center;verticalAlign=middle;resizable=0;points=[];autosize=1;strokeColor=none;fillColor=none;fontSize=20;" parent="1" vertex="1">
                    <mxGeometry x="1235" y="825" width="50" height="40" as="geometry"/>
                </mxCell>
                <mxCell id="86" value="CTC" style="rounded=1;whiteSpace=wrap;html=1;fontSize=16;strokeColor=none;fillColor=#6d8764;fontColor=#ffffff;" parent="1" vertex="1">
                    <mxGeometry x="2830" y="720" width="120" height="60" as="geometry"/>
                </mxCell>
                <mxCell id="104" style="edgeStyle=none;html=1;exitX=0.5;exitY=1;exitDx=0;exitDy=0;entryX=0.5;entryY=0;entryDx=0;entryDy=0;strokeColor=#3399FF;fontSize=20;startArrow=oval;startFill=1;endArrow=classic;endFill=1;" parent="1" source="87" target="90" edge="1">
                    <mxGeometry relative="1" as="geometry"/>
                </mxCell>
                <mxCell id="118" value="1" style="edgeLabel;html=1;align=center;verticalAlign=middle;resizable=0;points=[];" vertex="1" connectable="0" parent="104">
                    <mxGeometry x="-0.0922" y="-1" relative="1" as="geometry">
                        <mxPoint as="offset"/>
                    </mxGeometry>
                </mxCell>
                <mxCell id="87" value="SCC" style="rounded=1;whiteSpace=wrap;html=1;fontSize=16;strokeColor=none;fillColor=#6d8764;fontColor=#ffffff;" parent="1" vertex="1">
                    <mxGeometry x="2990" y="720" width="120" height="60" as="geometry"/>
                </mxCell>
                <mxCell id="105" style="edgeStyle=none;html=1;exitX=0.5;exitY=1;exitDx=0;exitDy=0;entryX=0.5;entryY=0;entryDx=0;entryDy=0;strokeColor=#3399FF;fontSize=20;startArrow=oval;startFill=1;endArrow=classic;endFill=1;" parent="1" source="90" target="93" edge="1">
                    <mxGeometry relative="1" as="geometry"/>
                </mxCell>
                <mxCell id="119" value="2" style="edgeLabel;html=1;align=center;verticalAlign=middle;resizable=0;points=[];" vertex="1" connectable="0" parent="105">
                    <mxGeometry x="-0.2156" relative="1" as="geometry">
                        <mxPoint as="offset"/>
                    </mxGeometry>
                </mxCell>
                <mxCell id="90" value="Messager" style="rounded=1;whiteSpace=wrap;html=1;fontSize=16;strokeColor=none;fillColor=#6d8764;fontColor=#ffffff;" parent="1" vertex="1">
                    <mxGeometry x="2910" y="875" width="120" height="60" as="geometry"/>
                </mxCell>
                <mxCell id="106" style="edgeStyle=none;html=1;exitX=0;exitY=0.5;exitDx=0;exitDy=0;entryX=1;entryY=0.5;entryDx=0;entryDy=0;strokeColor=#3399FF;fontSize=20;startArrow=oval;startFill=1;endArrow=classic;endFill=1;" parent="1" source="93" target="99" edge="1">
                    <mxGeometry relative="1" as="geometry"/>
                </mxCell>
                <mxCell id="120" value="3" style="edgeLabel;html=1;align=center;verticalAlign=middle;resizable=0;points=[];" vertex="1" connectable="0" parent="106">
                    <mxGeometry x="-0.0686" relative="1" as="geometry">
                        <mxPoint as="offset"/>
                    </mxGeometry>
                </mxCell>
                <mxCell id="93" value="TokenBridge" style="rounded=1;whiteSpace=wrap;html=1;fontSize=16;strokeColor=none;fillColor=#6d8764;fontColor=#ffffff;" parent="1" vertex="1">
                    <mxGeometry x="2910" y="1025" width="120" height="60" as="geometry"/>
                </mxCell>
                <mxCell id="99" value="" style="rounded=1;whiteSpace=wrap;html=1;fontSize=16;fillColor=none;dashed=1;dashPattern=8 8;strokeColor=#99CCFF;" parent="1" vertex="1">
                    <mxGeometry x="2370" y="1005" width="360" height="100" as="geometry"/>
                </mxCell>
                <mxCell id="100" value="LP" style="ellipse;whiteSpace=wrap;html=1;aspect=fixed;fontSize=16;fillColor=#1ba1e2;fontColor=#ffffff;strokeColor=none;" parent="1" vertex="1">
                    <mxGeometry x="2630" y="1015" width="80" height="80" as="geometry"/>
                </mxCell>
                <mxCell id="101" value="LP" style="ellipse;whiteSpace=wrap;html=1;aspect=fixed;fontSize=16;fillColor=#1ba1e2;fontColor=#ffffff;strokeColor=none;opacity=50;" parent="1" vertex="1">
                    <mxGeometry x="2530" y="1015" width="80" height="80" as="geometry"/>
                </mxCell>
                <mxCell id="102" value="LP" style="ellipse;whiteSpace=wrap;html=1;aspect=fixed;fontSize=16;fillColor=#1ba1e2;fontColor=#ffffff;strokeColor=none;opacity=50;" parent="1" vertex="1">
                    <mxGeometry x="2430" y="1015" width="80" height="80" as="geometry"/>
                </mxCell>
                <mxCell id="103" value="····" style="text;html=1;align=center;verticalAlign=middle;resizable=0;points=[];autosize=1;strokeColor=none;fillColor=none;fontSize=20;" parent="1" vertex="1">
                    <mxGeometry x="2375" y="1040" width="50" height="40" as="geometry"/>
                </mxCell>
                <mxCell id="109" value="" style="rounded=1;whiteSpace=wrap;html=1;fontSize=16;fillColor=none;dashed=1;dashPattern=8 8;strokeColor=#99CCFF;" parent="1" vertex="1">
                    <mxGeometry x="1480" y="395" width="360" height="100" as="geometry"/>
                </mxCell>
                <mxCell id="115" style="edgeStyle=none;html=1;exitX=0.5;exitY=1;exitDx=0;exitDy=0;entryX=0.5;entryY=0;entryDx=0;entryDy=0;strokeColor=#3399FF;fontSize=20;startArrow=oval;startFill=1;endArrow=classic;endFill=1;" parent="1" source="110" target="112" edge="1">
                    <mxGeometry relative="1" as="geometry"/>
                </mxCell>
                <mxCell id="116" style="edgeStyle=none;html=1;exitX=0.5;exitY=1;exitDx=0;exitDy=0;entryX=0.5;entryY=0;entryDx=0;entryDy=0;strokeColor=#3399FF;fontSize=20;startArrow=oval;startFill=1;endArrow=classic;endFill=1;" parent="1" source="110" target="111" edge="1">
                    <mxGeometry relative="1" as="geometry"/>
                </mxCell>
                <mxCell id="117" style="edgeStyle=none;html=1;exitX=0.5;exitY=1;exitDx=0;exitDy=0;entryX=0.5;entryY=0;entryDx=0;entryDy=0;strokeColor=#3399FF;fontSize=20;startArrow=oval;startFill=1;endArrow=classic;endFill=1;" parent="1" source="110" target="114" edge="1">
                    <mxGeometry relative="1" as="geometry"/>
                </mxCell>
                <mxCell id="110" value="LP" style="ellipse;whiteSpace=wrap;html=1;aspect=fixed;fontSize=16;fillColor=#1ba1e2;fontColor=#ffffff;strokeColor=none;" parent="1" vertex="1">
                    <mxGeometry x="1640" y="215" width="80" height="80" as="geometry"/>
                </mxCell>
                <mxCell id="111" value="LP" style="ellipse;whiteSpace=wrap;html=1;aspect=fixed;fontSize=16;fillColor=#1ba1e2;fontColor=#ffffff;strokeColor=none;opacity=50;" parent="1" vertex="1">
                    <mxGeometry x="1640" y="405" width="80" height="80" as="geometry"/>
                </mxCell>
                <mxCell id="112" value="LP" style="ellipse;whiteSpace=wrap;html=1;aspect=fixed;fontSize=16;fillColor=#1ba1e2;fontColor=#ffffff;strokeColor=none;opacity=50;" parent="1" vertex="1">
                    <mxGeometry x="1540" y="405" width="80" height="80" as="geometry"/>
                </mxCell>
                <mxCell id="113" value="····" style="text;html=1;align=center;verticalAlign=middle;resizable=0;points=[];autosize=1;strokeColor=none;fillColor=none;fontSize=20;" parent="1" vertex="1">
                    <mxGeometry x="1485" y="430" width="50" height="40" as="geometry"/>
                </mxCell>
                <mxCell id="114" value="LP" style="ellipse;whiteSpace=wrap;html=1;aspect=fixed;fontSize=16;fillColor=#1ba1e2;fontColor=#ffffff;strokeColor=none;opacity=50;" parent="1" vertex="1">
                    <mxGeometry x="1740" y="405" width="80" height="80" as="geometry"/>
                </mxCell>
            </root>
        </mxGraphModel>
    </diagram>
</mxfile>